# xmcd CD database file
#
# Track frame offsets:
#	150
#	38855
#	82567
#	117584
#	153814
#	186678
#	223787
#	256280
#
# Disc length: 4152 seconds
#
# Revision: 0
# Processed by: cddbd v1.5.2PL0 Copyright (c) Steve Scherf et al.
# Submitted via: CDex 1.51
#
DISCID=68103608
DTITLE=Otto Wolters and Friends - Otto Wolters and Friends
DYEAR=2010
DGENRE=Jazz
TTITLE0=Dreampipe
TTITLE1=In Love In Vain
TTITLE2=Bei Dir war es immer so schön
TTITLE3=Crossing Over
TTITLE4=Throw It Away
TTITLE5=Ton Sur Ton
TTITLE6=Mana Mene
TTITLE7=Wang Thang
EXTD=YEAR: 2010
EXTT0=
EXTT1=
EXTT2=
EXTT3=
EXTT4=
EXTT5=
EXTT6=
EXTT7=
PLAYORDER=
